<mxfile host="app.diagrams.net" modified="2022-04-12T08:15:17.361Z" agent="5.0 (Windows NT 10.0; Win64; x64) AppleWebKit/537.36 (KHTML, like Gecko) Chrome/99.0.4844.74 Safari/537.36" etag="tLOxa_KOlsOaDgHp0AZb" version="17.4.2" type="github">
  <diagram id="QCy4Yo1-0hl0CvIKTCS-" name="Page-1">
    <mxGraphModel dx="1422" dy="762" grid="1" gridSize="10" guides="1" tooltips="1" connect="1" arrows="1" fold="1" page="1" pageScale="1" pageWidth="1600" pageHeight="1200" math="0" shadow="0">
      <root>
        <mxCell id="0" />
        <mxCell id="1" parent="0" />
        <mxCell id="eLUlsAscGzKHSoukCWUT-3" style="edgeStyle=orthogonalEdgeStyle;rounded=0;orthogonalLoop=1;jettySize=auto;html=1;" edge="1" parent="1" source="eLUlsAscGzKHSoukCWUT-1" target="eLUlsAscGzKHSoukCWUT-2">
          <mxGeometry relative="1" as="geometry" />
        </mxCell>
        <mxCell id="eLUlsAscGzKHSoukCWUT-1" value="Actor" style="shape=umlActor;verticalLabelPosition=bottom;verticalAlign=top;html=1;outlineConnect=0;" vertex="1" parent="1">
          <mxGeometry x="150" y="250" width="30" height="60" as="geometry" />
        </mxCell>
        <mxCell id="eLUlsAscGzKHSoukCWUT-12" style="edgeStyle=orthogonalEdgeStyle;rounded=0;orthogonalLoop=1;jettySize=auto;html=1;" edge="1" parent="1" source="eLUlsAscGzKHSoukCWUT-2">
          <mxGeometry relative="1" as="geometry">
            <mxPoint x="440" y="280" as="targetPoint" />
          </mxGeometry>
        </mxCell>
        <mxCell id="eLUlsAscGzKHSoukCWUT-2" value="后端服务" style="rhombus;whiteSpace=wrap;html=1;" vertex="1" parent="1">
          <mxGeometry x="340" y="240" width="80" height="80" as="geometry" />
        </mxCell>
        <mxCell id="eLUlsAscGzKHSoukCWUT-4" value="传openid，unionid" style="text;html=1;align=center;verticalAlign=middle;resizable=0;points=[];autosize=1;strokeColor=none;fillColor=none;" vertex="1" parent="1">
          <mxGeometry x="210" y="250" width="110" height="20" as="geometry" />
        </mxCell>
        <mxCell id="eLUlsAscGzKHSoukCWUT-5" value="" style="endArrow=classic;html=1;rounded=0;" edge="1" parent="1">
          <mxGeometry relative="1" as="geometry">
            <mxPoint x="440" y="279.5" as="sourcePoint" />
            <mxPoint x="550" y="220" as="targetPoint" />
            <Array as="points">
              <mxPoint x="440" y="220" />
            </Array>
          </mxGeometry>
        </mxCell>
        <mxCell id="eLUlsAscGzKHSoukCWUT-6" value="true" style="edgeLabel;resizable=0;html=1;align=center;verticalAlign=middle;" connectable="0" vertex="1" parent="eLUlsAscGzKHSoukCWUT-5">
          <mxGeometry relative="1" as="geometry">
            <mxPoint x="35" as="offset" />
          </mxGeometry>
        </mxCell>
        <mxCell id="eLUlsAscGzKHSoukCWUT-8" value="" style="endArrow=classic;html=1;rounded=0;" edge="1" parent="1">
          <mxGeometry relative="1" as="geometry">
            <mxPoint x="440" y="280" as="sourcePoint" />
            <mxPoint x="550" y="350" as="targetPoint" />
            <Array as="points">
              <mxPoint x="440" y="350" />
            </Array>
          </mxGeometry>
        </mxCell>
        <mxCell id="eLUlsAscGzKHSoukCWUT-10" value="false" style="edgeLabel;html=1;align=center;verticalAlign=middle;resizable=0;points=[];" vertex="1" connectable="0" parent="eLUlsAscGzKHSoukCWUT-8">
          <mxGeometry x="-0.2" relative="1" as="geometry">
            <mxPoint x="44" as="offset" />
          </mxGeometry>
        </mxCell>
        <mxCell id="eLUlsAscGzKHSoukCWUT-14" style="edgeStyle=orthogonalEdgeStyle;rounded=0;orthogonalLoop=1;jettySize=auto;html=1;entryX=0;entryY=0.5;entryDx=0;entryDy=0;" edge="1" parent="1" source="eLUlsAscGzKHSoukCWUT-11" target="eLUlsAscGzKHSoukCWUT-13">
          <mxGeometry relative="1" as="geometry" />
        </mxCell>
        <mxCell id="eLUlsAscGzKHSoukCWUT-11" value="提示绑定手机号" style="rounded=0;whiteSpace=wrap;html=1;" vertex="1" parent="1">
          <mxGeometry x="560" y="320" width="120" height="60" as="geometry" />
        </mxCell>
        <mxCell id="eLUlsAscGzKHSoukCWUT-15" style="edgeStyle=orthogonalEdgeStyle;rounded=0;orthogonalLoop=1;jettySize=auto;html=1;" edge="1" parent="1" source="eLUlsAscGzKHSoukCWUT-13">
          <mxGeometry relative="1" as="geometry">
            <mxPoint x="1010" y="350" as="targetPoint" />
          </mxGeometry>
        </mxCell>
        <mxCell id="eLUlsAscGzKHSoukCWUT-13" value="后端服务" style="rhombus;whiteSpace=wrap;html=1;" vertex="1" parent="1">
          <mxGeometry x="810" y="310" width="80" height="80" as="geometry" />
        </mxCell>
        <mxCell id="eLUlsAscGzKHSoukCWUT-16" value="登录成功" style="text;html=1;align=center;verticalAlign=middle;resizable=0;points=[];autosize=1;strokeColor=none;fillColor=none;" vertex="1" parent="1">
          <mxGeometry x="900" y="330" width="60" height="20" as="geometry" />
        </mxCell>
        <mxCell id="eLUlsAscGzKHSoukCWUT-17" value="获取到token跳转首页" style="whiteSpace=wrap;html=1;aspect=fixed;" vertex="1" parent="1">
          <mxGeometry x="1020" y="310" width="80" height="80" as="geometry" />
        </mxCell>
        <mxCell id="eLUlsAscGzKHSoukCWUT-19" style="edgeStyle=orthogonalEdgeStyle;rounded=0;orthogonalLoop=1;jettySize=auto;html=1;entryX=0.5;entryY=0;entryDx=0;entryDy=0;" edge="1" parent="1" source="eLUlsAscGzKHSoukCWUT-18" target="eLUlsAscGzKHSoukCWUT-13">
          <mxGeometry relative="1" as="geometry" />
        </mxCell>
        <mxCell id="eLUlsAscGzKHSoukCWUT-18" value="返回手机号" style="rounded=0;whiteSpace=wrap;html=1;" vertex="1" parent="1">
          <mxGeometry x="550" y="190" width="120" height="60" as="geometry" />
        </mxCell>
      </root>
    </mxGraphModel>
  </diagram>
</mxfile>
